PathFileType	4	(X/Y/Z)	Patient4_TMGait_0pt2_01_left_04.trc.trc
DataRate	CameraRate	NumFrames	NumMarkers	Units	OrigDataRate	OrigDataStartFrame	OrigNumFrames
45.161290322581	45.161290322581	5	33	mm	45.161290322581	1	       141
Frame#	Time	Sacral			L.Shoulder			Chest			R.Shoulder			Neck			R.ASIS			L.ASIS			R.Thigh.Superior			R.Thigh.Lateral			R.Thigh.Inferior			R.Patella			L.Thigh.Superior			L.Thigh.Lateral			L.Thigh.Inferior			L.Patella			L.Shank.Superior			L.Shank.Lateral			L.Shank.Inferior			R.Shank.Superior			R.Shank.Lateral			R.Shank.Inferior			R.Heel			R.Midfoot.Superior			R.Midfoot.Lateral			R.Toe			L.Heel			L.Midfoot.Lateral			L.Midfoot.Superior			L.Toe			L.Elbow			L.Wrist			R.Elbow			R.Wrist			
		X1	Y1	Z1	X2	Y2	Z2	X3	Y3	Z3	X4	Y4	Z4	X5	Y5	Z5	X6	Y6	Z6	X7	Y7	Z7	X8	Y8	Z8	X9	Y9	Z9	X10	Y10	Z10	X11	Y11	Z11	X12	Y12	Z12	X13	Y13	Z13	X14	Y14	Z14	X15	Y15	Z15	X16	Y16	Z16	X17	Y17	Z17	X18	Y18	Z18	X19	Y19	Z19	X20	Y20	Z20	X21	Y21	Z21	X22	Y22	Z22	X23	Y23	Z23	X24	Y24	Z24	X25	Y25	Z25	X26	Y26	Z26	X27	Y27	Z27	X28	Y28	Z28	X29	Y29	Z29	X30	Y30	Z30	X31	Y31	Z31	X32	Y32	Z32	X33	Y33	Z33	

1	8.140000000000	852.186369330514	988.515075479944	594.897194394029	989.252759562385	1417.171213600970	390.841184069574	1108.553731916907	1362.785321509375	546.323102374405	1034.286795811430	1437.151040573853	724.226800339716	981.782649562478	1484.500596209078	547.924376925706	1091.313003036191	936.828448519215	696.752171851536	1057.651333243407	952.181423689913	424.481382082690	1132.762173231474	734.516283349062	649.778413262379	1057.460050202617	615.603400413929	705.240029534380	1127.844072060982	571.177606230581	616.370032798556	1127.673559170154	476.069591937537	615.454795466198	1120.904672556254	742.995794150263	442.336528201124	1045.813457811097	627.938750589537	363.290502608459	1136.462799539346	544.578359658048	418.918384999298	1129.926384672281	456.878133181760	405.438729622526	1054.818831704298	403.669178213155	393.174358175157	908.089970620045	382.084125268367	346.431457132218	883.864900850933	248.301797618435	386.344796074916	1083.576816760593	389.522974638098	616.453406122046	1001.132656115761	292.897728648270	677.616519535356	1019.860657337817	199.225783266554	605.346226304605	858.627120008784	47.074937270466	579.035785708316	1033.939131030787	97.144187304090	606.722850453639	945.115391881915	38.516010660171	648.881995146917	1152.843941882243	39.466320608948	629.694127264412	690.503869208285	206.619093066241	427.329094275177	735.714367891618	157.650250735667	341.085675313379	842.296342696970	147.637673649651	355.032996620712	899.264461805488	27.482529074678	315.254742537914	924.834117880001	1067.519556981356	287.594314038489	965.338969671448	809.268674926805	283.573578093754	1130.194377916840	1126.461745719196	892.377080616123	1365.445728208143	1012.589531019018	902.320030832504	
2	8.162142857143	850.461252691559	986.895806579621	598.587597041408	983.231308248714	1416.087055483983	392.597165442136	1105.408862142655	1361.643170428755	545.713632365944	1034.331750151163	1435.821404692710	724.910076573632	978.625258650020	1483.119725929449	549.550972626921	1091.129924081767	935.704705475692	696.968207935144	1053.597204741786	951.304227557886	425.233773667246	1132.287427400469	733.375876177465	649.531835238828	1057.686341433604	614.275474559465	705.280515237530	1127.338639887836	570.117528531019	615.625054854058	1127.043607968130	474.569337515818	614.634626792478	1121.220752577750	745.416620922296	443.543386575775	1049.201158166164	628.508093553998	364.926216935582	1142.373429307187	547.751914741142	420.285413985635	1137.974103414323	459.535701802457	406.512591302408	1063.315070088575	405.022929282622	394.570090184776	915.881887914352	382.011029636536	350.508173947147	894.257889880663	247.561157212386	389.493558181306	1082.049378917843	388.147780111831	616.059591662026	999.015598057639	292.262494371672	677.578443649418	1016.440214692540	198.501495984423	605.250271313976	854.147108997760	47.019191392590	579.190664605584	1029.634912737695	97.243143163717	606.963892799887	940.696931066565	38.427992099866	648.974793073673	1148.416579046405	39.479583140232	629.741965798379	702.085862405765	200.691277112899	433.678814957408	746.975896700559	155.421006114822	345.555614669292	853.827291341676	148.083146261063	357.757595011075	913.272732272914	30.776783679444	313.787564446120	910.074218524224	1068.704806528443	291.764415139645	941.967951248797	809.621197138966	292.123711425213	1140.379348430390	1127.883304740695	890.075011134132	1379.978457442778	1026.001711347046	895.578074570433	
3	8.184285714286	848.710387732314	985.365031638878	602.388912277013	976.893791106349	1415.106500042153	394.399073826585	1102.098526382789	1360.621023940024	544.993549576264	1034.387656010575	1434.593833997004	725.523742429549	975.270269752478	1481.820496901523	551.196115038946	1090.948218204008	934.628910786285	697.059558427450	1049.331798307560	950.543315644726	425.927365439782	1131.632840304072	732.243316323082	649.151525334930	1057.706239461660	612.999680251696	705.271424619889	1126.521574240273	569.062777648217	614.801448286384	1126.049137447774	473.106987834189	613.759406546403	1121.296116576659	747.966831482199	444.679254313222	1052.412800444281	629.242003798349	366.454094828653	1148.026246097897	551.107519079270	421.577116319068	1145.861170112436	462.471417943237	407.454225380742	1071.911223936550	406.519102316732	395.788176496905	923.986709528497	381.380944977289	354.328761413848	905.592988411753	246.256630978249	392.372416948258	1080.185966293989	386.818030886662	615.635985037379	996.616715474798	291.637151728347	677.524099183750	1012.790873463192	197.796378609793	605.141583637549	849.491322790964	46.933196455355	579.339368405083	1025.134105890623	97.329335756964	607.188604856097	936.094972755481	38.337402950877	649.077357386697	1143.807067141609	39.501945475493	629.788797294827	715.004023802248	193.348499819390	439.637930404934	759.697518441961	151.968914702821	349.674309970324	866.744718717205	147.828632107404	360.189599202168	929.132279130571	33.770708267340	312.081413630020	895.033360681509	1070.029001192902	296.166477138041	918.321264777382	810.190001689685	300.990411475649	1150.785826900935	1129.504602935877	887.452595920948	1394.614451695554	1039.943044126130	888.190034204341	
4	8.206428571429	846.975387627276	984.031890947266	606.184739890994	970.357868611510	1414.315705976345	396.192213711012	1098.682654218261	1359.811588391421	544.136714385355	1034.461796801116	1433.565580528463	726.003767399520	971.772374613615	1480.694607942748	552.798516284655	1090.760085972538	933.668593463236	696.964458480157	1044.924126229554	949.988891373869	426.499623484048	1130.729094750728	731.169310297937	648.594766756779	1057.408442324971	611.853725715063	705.190454223691	1125.271211622671	568.061412816056	613.900219783850	1124.552474458185	471.763138671575	612.843444571460	1121.012395685451	750.606180459550	445.656535379334	1055.213186142677	630.181126635436	367.762053382239	1153.064487690732	554.590135983721	422.693398764856	1153.188568492058	465.698904356890	408.169742448738	1080.300578614259	408.178242404938	396.703598658356	932.250474914658	380.016460335986	357.597723574241	917.846582823504	244.264583052878	394.728400502831	1077.899319164762	385.609469057154	615.189283827813	993.895630591071	291.055085588793	677.451947012813	1008.942552156244	197.149122515829	605.022053564033	844.755449997787	46.812410093332	579.476673256777	1020.520294233391	97.395028567403	607.383448214114	931.401618774822	38.245937553536	649.188134546616	1139.109052195146	39.535713015110	629.831516074795	729.369852372726	184.372371980036	444.745155211270	774.062456473339	147.006386556450	353.082854211156	881.168063423982	146.667523810985	362.083298564425	947.031594118793	36.312049084288	310.103536853607	880.175365067840	1071.499005404637	300.730974337301	895.211315848547	811.041825889343	309.960335008901	1161.104019825918	1131.361072893459	884.462974267433	1408.811290074833	1054.122382080462	880.141512724604	
5	8.228571428571	845.278947793208	982.987072130976	609.869876191882	963.724921424251	1413.781025377816	397.930203921067	1095.211698491693	1359.285251761784	543.119432738542	1034.561345499762	1432.814165932055	726.293269507218	968.181801997209	1479.815740814684	554.300366319134	1090.547264493052	932.877198564369	696.631891441512	1040.425586848875	949.714908855653	426.897861207732	1129.508599312652	730.194314546655	647.827647198198	1056.690424842543	610.901995622253	705.020510580936	1123.476699460806	567.153183554868	612.922085069460	1122.430287641321	470.604870707605	611.897878484434	1120.273911274363	753.301325203010	446.398854728432	1057.397182788007	631.351378399776	368.759562157980	1157.195904639752	558.148897917892	423.543909653967	1159.631058186410	469.227241429622	408.587923745936	1088.231506423522	410.025688864013	397.219365618749	940.569689177599	377.817461213485	360.057177919859	930.993479998090	241.551431622190	396.342904333659	1075.108760584474	384.583635048404	614.724065252307	990.810870022198	290.543397709444	677.358360738101	1004.909278595317	196.589728817059	604.891872884098	840.007846089601	46.654127155614	579.599317170044	1015.855190081331	97.435606606854	607.539266906296	926.684217091663	38.154237730512	649.304935845575	1134.391114037362	39.582592580679	629.867456331966	745.278963377865	173.707680825127	448.590164071386	790.227022343218	140.410302117042	355.463643686627	897.183362317521	144.512463296750	363.227187042750	967.085052301257	38.348438487060	307.840903184882	865.866166868871	1073.112697086220	305.400785926419	873.276479905035	812.215795620367	318.858399822971	1171.093470959582	1133.488405051105	881.068761239773	1422.135973222624	1068.325691002972	871.410995928892	
